<?xml version="1.0" encoding="UTF-8"?>
<!-- Do not edit this file with editors other than draw.io -->
<!DOCTYPE svg PUBLIC "-//W3C//DTD SVG 1.1//EN" "http://www.w3.org/Graphics/SVG/1.1/DTD/svg11.dtd">
<svg xmlns="http://www.w3.org/2000/svg" xmlns:xlink="http://www.w3.org/1999/xlink" version="1.1" width="401px" height="401px" viewBox="-0.5 -0.5 401 401" content="&lt;mxfile host=&quot;app.diagrams.net&quot; agent=&quot;Mozilla/5.0 (X11; Linux x86_64) AppleWebKit/537.36 (KHTML, like Gecko) Chrome/130.0.0.0 Safari/537.36&quot; version=&quot;24.8.6&quot;&gt;&#10;  &lt;diagram name=&quot;Page-1&quot; id=&quot;VfrpPr8TUFDduf_TlwhR&quot;&gt;&#10;    &lt;mxGraphModel dx=&quot;659&quot; dy=&quot;344&quot; grid=&quot;1&quot; gridSize=&quot;10&quot; guides=&quot;1&quot; tooltips=&quot;1&quot; connect=&quot;1&quot; arrows=&quot;1&quot; fold=&quot;1&quot; page=&quot;1&quot; pageScale=&quot;1&quot; pageWidth=&quot;1200&quot; pageHeight=&quot;1920&quot; background=&quot;none&quot; math=&quot;0&quot; shadow=&quot;0&quot;&gt;&#10;      &lt;root&gt;&#10;        &lt;mxCell id=&quot;0&quot; /&gt;&#10;        &lt;mxCell id=&quot;1&quot; parent=&quot;0&quot; /&gt;&#10;        &lt;mxCell id=&quot;VRyY9aNiHfzaRsHdYt7Z-1&quot; value=&quot;Cross-Functional Flowchart&quot; style=&quot;shape=table;childLayout=tableLayout;startSize=40;collapsible=0;recursiveResize=0;expand=0;fontSize=16;sketch=1;hachureGap=4;jiggle=2;curveFitting=1;fontFamily=Architects Daughter;fontSource=https%3A%2F%2Ffonts.googleapis.com%2Fcss%3Ffamily%3DArchitects%2BDaughter;&quot; vertex=&quot;1&quot; parent=&quot;1&quot;&gt;&#10;          &lt;mxGeometry x=&quot;60&quot; y=&quot;270&quot; width=&quot;400&quot; height=&quot;400&quot; as=&quot;geometry&quot; /&gt;&#10;        &lt;/mxCell&gt;&#10;        &lt;mxCell id=&quot;VRyY9aNiHfzaRsHdYt7Z-2&quot; value=&quot;Actor 1&quot; style=&quot;shape=tableRow;horizontal=0;swimlaneHead=0;swimlaneBody=0;top=0;left=0;bottom=0;right=0;dropTarget=0;fontStyle=0;points=[[0,0.5],[1,0.5]];portConstraint=eastwest;startSize=40;collapsible=0;recursiveResize=0;expand=0;fontSize=16;sketch=1;hachureGap=4;jiggle=2;curveFitting=1;fontFamily=Architects Daughter;fontSource=https%3A%2F%2Ffonts.googleapis.com%2Fcss%3Ffamily%3DArchitects%2BDaughter;fillColor=#ffe6cc;strokeColor=#d79b00;&quot; vertex=&quot;1&quot; parent=&quot;VRyY9aNiHfzaRsHdYt7Z-1&quot;&gt;&#10;          &lt;mxGeometry y=&quot;40&quot; width=&quot;400&quot; height=&quot;120&quot; as=&quot;geometry&quot; /&gt;&#10;        &lt;/mxCell&gt;&#10;        &lt;mxCell id=&quot;VRyY9aNiHfzaRsHdYt7Z-3&quot; value=&quot;Prep&quot; style=&quot;swimlane;swimlaneHead=0;swimlaneBody=0;fontStyle=0;strokeColor=inherit;connectable=0;fillColor=none;startSize=40;collapsible=0;recursiveResize=0;expand=0;fontSize=16;sketch=1;hachureGap=4;jiggle=2;curveFitting=1;fontFamily=Architects Daughter;fontSource=https%3A%2F%2Ffonts.googleapis.com%2Fcss%3Ffamily%3DArchitects%2BDaughter;&quot; vertex=&quot;1&quot; parent=&quot;VRyY9aNiHfzaRsHdYt7Z-2&quot;&gt;&#10;          &lt;mxGeometry x=&quot;40&quot; width=&quot;120&quot; height=&quot;120&quot; as=&quot;geometry&quot;&gt;&#10;            &lt;mxRectangle width=&quot;120&quot; height=&quot;120&quot; as=&quot;alternateBounds&quot; /&gt;&#10;          &lt;/mxGeometry&gt;&#10;        &lt;/mxCell&gt;&#10;        &lt;mxCell id=&quot;VRyY9aNiHfzaRsHdYt7Z-4&quot; value=&quot;Working&quot; style=&quot;swimlane;swimlaneHead=0;swimlaneBody=0;fontStyle=0;strokeColor=inherit;connectable=0;fillColor=none;startSize=40;collapsible=0;recursiveResize=0;expand=0;fontSize=16;sketch=1;hachureGap=4;jiggle=2;curveFitting=1;fontFamily=Architects Daughter;fontSource=https%3A%2F%2Ffonts.googleapis.com%2Fcss%3Ffamily%3DArchitects%2BDaughter;&quot; vertex=&quot;1&quot; parent=&quot;VRyY9aNiHfzaRsHdYt7Z-2&quot;&gt;&#10;          &lt;mxGeometry x=&quot;160&quot; width=&quot;120&quot; height=&quot;120&quot; as=&quot;geometry&quot;&gt;&#10;            &lt;mxRectangle width=&quot;120&quot; height=&quot;120&quot; as=&quot;alternateBounds&quot; /&gt;&#10;          &lt;/mxGeometry&gt;&#10;        &lt;/mxCell&gt;&#10;        &lt;mxCell id=&quot;VRyY9aNiHfzaRsHdYt7Z-5&quot; value=&quot;Deliver&quot; style=&quot;swimlane;swimlaneHead=0;swimlaneBody=0;fontStyle=0;strokeColor=inherit;connectable=0;fillColor=none;startSize=40;collapsible=0;recursiveResize=0;expand=0;fontSize=16;sketch=1;hachureGap=4;jiggle=2;curveFitting=1;fontFamily=Architects Daughter;fontSource=https%3A%2F%2Ffonts.googleapis.com%2Fcss%3Ffamily%3DArchitects%2BDaughter;&quot; vertex=&quot;1&quot; parent=&quot;VRyY9aNiHfzaRsHdYt7Z-2&quot;&gt;&#10;          &lt;mxGeometry x=&quot;280&quot; width=&quot;120&quot; height=&quot;120&quot; as=&quot;geometry&quot;&gt;&#10;            &lt;mxRectangle width=&quot;120&quot; height=&quot;120&quot; as=&quot;alternateBounds&quot; /&gt;&#10;          &lt;/mxGeometry&gt;&#10;        &lt;/mxCell&gt;&#10;        &lt;mxCell id=&quot;VRyY9aNiHfzaRsHdYt7Z-6&quot; value=&quot;Actor 2&quot; style=&quot;shape=tableRow;horizontal=0;swimlaneHead=0;swimlaneBody=0;top=0;left=0;strokeColor=#6c8ebf;bottom=0;right=0;dropTarget=0;fontStyle=0;fillColor=#dae8fc;points=[[0,0.5],[1,0.5]];portConstraint=eastwest;startSize=40;collapsible=0;recursiveResize=0;expand=0;fontSize=16;sketch=1;hachureGap=4;jiggle=2;curveFitting=1;fontFamily=Architects Daughter;fontSource=https%3A%2F%2Ffonts.googleapis.com%2Fcss%3Ffamily%3DArchitects%2BDaughter;&quot; vertex=&quot;1&quot; parent=&quot;VRyY9aNiHfzaRsHdYt7Z-1&quot;&gt;&#10;          &lt;mxGeometry y=&quot;160&quot; width=&quot;400&quot; height=&quot;120&quot; as=&quot;geometry&quot; /&gt;&#10;        &lt;/mxCell&gt;&#10;        &lt;mxCell id=&quot;VRyY9aNiHfzaRsHdYt7Z-7&quot; value=&quot;&quot; style=&quot;swimlane;swimlaneHead=0;swimlaneBody=0;fontStyle=0;connectable=0;strokeColor=inherit;fillColor=none;startSize=0;collapsible=0;recursiveResize=0;expand=0;fontSize=16;sketch=1;hachureGap=4;jiggle=2;curveFitting=1;fontFamily=Architects Daughter;fontSource=https%3A%2F%2Ffonts.googleapis.com%2Fcss%3Ffamily%3DArchitects%2BDaughter;&quot; vertex=&quot;1&quot; parent=&quot;VRyY9aNiHfzaRsHdYt7Z-6&quot;&gt;&#10;          &lt;mxGeometry x=&quot;40&quot; width=&quot;120&quot; height=&quot;120&quot; as=&quot;geometry&quot;&gt;&#10;            &lt;mxRectangle width=&quot;120&quot; height=&quot;120&quot; as=&quot;alternateBounds&quot; /&gt;&#10;          &lt;/mxGeometry&gt;&#10;        &lt;/mxCell&gt;&#10;        &lt;mxCell id=&quot;VRyY9aNiHfzaRsHdYt7Z-8&quot; value=&quot;&quot; style=&quot;swimlane;swimlaneHead=0;swimlaneBody=0;fontStyle=0;connectable=0;strokeColor=inherit;fillColor=none;startSize=0;collapsible=0;recursiveResize=0;expand=0;fontSize=16;sketch=1;hachureGap=4;jiggle=2;curveFitting=1;fontFamily=Architects Daughter;fontSource=https%3A%2F%2Ffonts.googleapis.com%2Fcss%3Ffamily%3DArchitects%2BDaughter;&quot; vertex=&quot;1&quot; parent=&quot;VRyY9aNiHfzaRsHdYt7Z-6&quot;&gt;&#10;          &lt;mxGeometry x=&quot;160&quot; width=&quot;120&quot; height=&quot;120&quot; as=&quot;geometry&quot;&gt;&#10;            &lt;mxRectangle width=&quot;120&quot; height=&quot;120&quot; as=&quot;alternateBounds&quot; /&gt;&#10;          &lt;/mxGeometry&gt;&#10;        &lt;/mxCell&gt;&#10;        &lt;mxCell id=&quot;VRyY9aNiHfzaRsHdYt7Z-9&quot; value=&quot;&quot; style=&quot;swimlane;swimlaneHead=0;swimlaneBody=0;fontStyle=0;connectable=0;strokeColor=inherit;fillColor=none;startSize=0;collapsible=0;recursiveResize=0;expand=0;fontSize=16;sketch=1;hachureGap=4;jiggle=2;curveFitting=1;fontFamily=Architects Daughter;fontSource=https%3A%2F%2Ffonts.googleapis.com%2Fcss%3Ffamily%3DArchitects%2BDaughter;&quot; vertex=&quot;1&quot; parent=&quot;VRyY9aNiHfzaRsHdYt7Z-6&quot;&gt;&#10;          &lt;mxGeometry x=&quot;280&quot; width=&quot;120&quot; height=&quot;120&quot; as=&quot;geometry&quot;&gt;&#10;            &lt;mxRectangle width=&quot;120&quot; height=&quot;120&quot; as=&quot;alternateBounds&quot; /&gt;&#10;          &lt;/mxGeometry&gt;&#10;        &lt;/mxCell&gt;&#10;        &lt;mxCell id=&quot;VRyY9aNiHfzaRsHdYt7Z-10&quot; value=&quot;Actor 3&quot; style=&quot;shape=tableRow;horizontal=0;swimlaneHead=0;swimlaneBody=0;top=0;left=0;strokeColor=#82b366;bottom=0;right=0;dropTarget=0;fontStyle=0;fillColor=#d5e8d4;points=[[0,0.5],[1,0.5]];portConstraint=eastwest;startSize=40;collapsible=0;recursiveResize=0;expand=0;fontSize=16;sketch=1;hachureGap=4;jiggle=2;curveFitting=1;fontFamily=Architects Daughter;fontSource=https%3A%2F%2Ffonts.googleapis.com%2Fcss%3Ffamily%3DArchitects%2BDaughter;&quot; vertex=&quot;1&quot; parent=&quot;VRyY9aNiHfzaRsHdYt7Z-1&quot;&gt;&#10;          &lt;mxGeometry y=&quot;280&quot; width=&quot;400&quot; height=&quot;120&quot; as=&quot;geometry&quot; /&gt;&#10;        &lt;/mxCell&gt;&#10;        &lt;mxCell id=&quot;VRyY9aNiHfzaRsHdYt7Z-11&quot; value=&quot;&quot; style=&quot;swimlane;swimlaneHead=0;swimlaneBody=0;fontStyle=0;connectable=0;strokeColor=inherit;fillColor=none;startSize=0;collapsible=0;recursiveResize=0;expand=0;fontSize=16;sketch=1;hachureGap=4;jiggle=2;curveFitting=1;fontFamily=Architects Daughter;fontSource=https%3A%2F%2Ffonts.googleapis.com%2Fcss%3Ffamily%3DArchitects%2BDaughter;&quot; vertex=&quot;1&quot; parent=&quot;VRyY9aNiHfzaRsHdYt7Z-10&quot;&gt;&#10;          &lt;mxGeometry x=&quot;40&quot; width=&quot;120&quot; height=&quot;120&quot; as=&quot;geometry&quot;&gt;&#10;            &lt;mxRectangle width=&quot;120&quot; height=&quot;120&quot; as=&quot;alternateBounds&quot; /&gt;&#10;          &lt;/mxGeometry&gt;&#10;        &lt;/mxCell&gt;&#10;        &lt;mxCell id=&quot;VRyY9aNiHfzaRsHdYt7Z-12&quot; value=&quot;&quot; style=&quot;swimlane;swimlaneHead=0;swimlaneBody=0;fontStyle=0;connectable=0;strokeColor=inherit;fillColor=none;startSize=0;collapsible=0;recursiveResize=0;expand=0;fontSize=16;sketch=1;hachureGap=4;jiggle=2;curveFitting=1;fontFamily=Architects Daughter;fontSource=https%3A%2F%2Ffonts.googleapis.com%2Fcss%3Ffamily%3DArchitects%2BDaughter;&quot; vertex=&quot;1&quot; parent=&quot;VRyY9aNiHfzaRsHdYt7Z-10&quot;&gt;&#10;          &lt;mxGeometry x=&quot;160&quot; width=&quot;120&quot; height=&quot;120&quot; as=&quot;geometry&quot;&gt;&#10;            &lt;mxRectangle width=&quot;120&quot; height=&quot;120&quot; as=&quot;alternateBounds&quot; /&gt;&#10;          &lt;/mxGeometry&gt;&#10;        &lt;/mxCell&gt;&#10;        &lt;mxCell id=&quot;VRyY9aNiHfzaRsHdYt7Z-13&quot; value=&quot;&quot; style=&quot;swimlane;swimlaneHead=0;swimlaneBody=0;fontStyle=0;connectable=0;strokeColor=inherit;fillColor=none;startSize=0;collapsible=0;recursiveResize=0;expand=0;fontSize=16;sketch=1;hachureGap=4;jiggle=2;curveFitting=1;fontFamily=Architects Daughter;fontSource=https%3A%2F%2Ffonts.googleapis.com%2Fcss%3Ffamily%3DArchitects%2BDaughter;&quot; vertex=&quot;1&quot; parent=&quot;VRyY9aNiHfzaRsHdYt7Z-10&quot;&gt;&#10;          &lt;mxGeometry x=&quot;280&quot; width=&quot;120&quot; height=&quot;120&quot; as=&quot;geometry&quot;&gt;&#10;            &lt;mxRectangle width=&quot;120&quot; height=&quot;120&quot; as=&quot;alternateBounds&quot; /&gt;&#10;          &lt;/mxGeometry&gt;&#10;        &lt;/mxCell&gt;&#10;      &lt;/root&gt;&#10;    &lt;/mxGraphModel&gt;&#10;  &lt;/diagram&gt;&#10;&lt;/mxfile&gt;&#10;" resource="https://app.diagrams.net/#HHyperUpscale%2Ffolder%2Fmain%2FBASE.drawio.svg"><defs/><g><g data-cell-id="0"><g data-cell-id="1"><g data-cell-id="VRyY9aNiHfzaRsHdYt7Z-1"><g><path d="M 0 40 L 0 0 L 400 0 L 400 40" fill="none" stroke="none" pointer-events="all"/><path d="M 0 40 C 3.74 19.62 2.17 11.83 0 0 C 118.85 4 230.27 4.36 400 0 C 396.6 14.14 402.29 19.64 400 40" fill="rgb(255, 255, 255)" stroke="none" pointer-events="all"/><path d="M 0 40 C 4.06 26.14 3.21 13.39 0 0 M 0 40 C 0.8 28.63 0.25 17.01 0 0 M 0 0 C 128.39 -1.59 255.78 -1.27 400 0 M 0 0 C 115.34 0.34 232.08 0.45 400 0 M 400 0 C 401.76 9.68 399.41 14.77 400 40 M 400 0 C 400.14 10.63 398.04 23.89 400 40" fill="none" stroke="rgb(0, 0, 0)" stroke-linejoin="round" stroke-linecap="round" stroke-miterlimit="10" pointer-events="all"/><path d="M 0 40 C 1.76 156.13 1.22 272.97 0 400 M 0 40 C -4.02 150.74 -4.37 261.31 0 400 M 0 400 C 128.39 398.41 255.78 398.73 400 400 M 0 400 C 115.34 400.34 232.08 400.45 400 400 M 400 400 C 399.22 322.96 397.74 243.02 400 40 M 400 400 C 402.25 285.42 400.92 172.51 400 40" fill="none" stroke="rgb(0, 0, 0)" stroke-linejoin="round" stroke-linecap="round" stroke-miterlimit="10" pointer-events="none"/><path d="M 0 40 C 131.89 43.74 261.08 43.87 400 40 M 0 40 C 122.48 41.84 244.59 42.19 400 40" fill="none" stroke="rgb(0, 0, 0)" stroke-linejoin="round" stroke-linecap="round" stroke-miterlimit="10" pointer-events="none"/><path d="M 0 160 C 55.79 162.1 106.82 162.32 160 160 M 0 160 C 49.06 161.82 97.47 162.44 160 160 M 160 160 C 198.75 158.47 235.76 159.02 280 160 M 160 160 C 193.12 160.96 228.7 161.15 280 160 M 280 160 C 307.36 163.08 330.91 159.54 400 160 M 280 160 C 318.26 159.82 353.94 160.49 400 160" fill="none" stroke="rgb(0, 0, 0)" stroke-linejoin="round" stroke-linecap="round" stroke-miterlimit="10" pointer-events="none"/><path d="M 0 280 C 55.79 282.1 106.82 282.32 160 280 M 0 280 C 49.06 281.82 97.47 282.44 160 280 M 160 280 C 198.75 278.47 235.76 279.02 280 280 M 160 280 C 193.12 280.96 228.7 281.15 280 280 M 280 280 C 307.36 283.08 330.91 279.54 400 280 M 280 280 C 318.26 279.82 353.94 280.49 400 280" fill="none" stroke="rgb(0, 0, 0)" stroke-linejoin="round" stroke-linecap="round" stroke-miterlimit="10" pointer-events="none"/><path d="M 160 40 C 163.54 78 162.7 117.12 160 160 M 160 40 C 157.94 77.6 157.39 114.95 160 160 M 160 160 C 162.09 197.48 160.63 236.5 160 280 M 160 160 C 155.96 196.02 156.63 231.12 160 280 M 160 280 C 162.35 306.94 160.01 329.3 160 400 M 160 280 C 159.46 315.82 157.36 354.27 160 400" fill="none" stroke="rgb(0, 0, 0)" stroke-linejoin="round" stroke-linecap="round" stroke-miterlimit="10" pointer-events="none"/><path d="M 280 40 C 283.54 78 282.7 117.12 280 160 M 280 40 C 277.94 77.6 277.39 114.95 280 160 M 280 160 C 282.09 197.48 280.63 236.5 280 280 M 280 160 C 275.96 196.02 276.63 231.12 280 280 M 280 280 C 282.35 306.94 280.01 329.3 280 400 M 280 280 C 279.46 315.82 277.36 354.27 280 400" fill="none" stroke="rgb(0, 0, 0)" stroke-linejoin="round" stroke-linecap="round" stroke-miterlimit="10" pointer-events="none"/></g><g><g fill="rgb(0, 0, 0)" font-family="&quot;Architects Daughter&quot;" text-anchor="middle" font-size="16px"><text x="199.5" y="26.5">Cross-Functional Flowchart</text></g></g><g data-cell-id="VRyY9aNiHfzaRsHdYt7Z-2"><g><path d="M 40 40 L 0 40 L 0 160 L 40 160" fill="none" stroke="none" pointer-events="all"/><path d="M 0 40 C 0 40 0 40 0 40 M 0 40 C 0 40 0 40 0 40 M -0.26 46.4 C 0.89 44.23 2.77 43.8 4.99 40.36 M -0.26 46.4 C 1.35 44.78 4.32 41.55 4.99 40.36 M 0.13 52.04 C 4.85 47.88 3.28 49.23 10.63 39.97 M 0.13 52.04 C 1.67 49.74 5.15 44.31 10.63 39.97 M -0.13 58.44 C 7.87 50.65 12.97 49.81 15.62 40.33 M -0.13 58.44 C 5.96 52.73 9.53 46.56 15.62 40.33 M 0.27 64.08 C 5.85 59.95 8.32 55.83 21.26 39.93 M 0.27 64.08 C 5.25 55.97 8.89 51.31 21.26 39.93 M 0 70.48 C 10.49 60.42 16.59 49.55 26.25 40.29 M 0 70.48 C 10.38 58.63 18.6 50.07 26.25 40.29 M -0.26 76.88 C 3.72 68.1 17.03 59.52 31.89 39.9 M -0.26 76.88 C 8.7 63.83 18.71 51.85 31.89 39.9 M 0.14 82.52 C 14.74 69.65 28.19 51.61 36.88 40.26 M 0.14 82.52 C 10.26 73.27 19.97 61.69 36.88 40.26 M -0.12 88.92 C 17.61 73.48 29.55 50.86 40.55 42.13 M -0.12 88.92 C 13.88 70 32.6 53.19 40.55 42.13 M 0.27 94.56 C 17.89 80.91 34.99 55.81 40.29 48.52 M 0.27 94.56 C 11.31 79.12 21.82 67.11 40.29 48.52 M 0.01 100.96 C 16.59 79.61 29.95 62.19 40.69 54.17 M 0.01 100.96 C 17.14 84.94 29.82 66.51 40.69 54.17 M -0.25 107.36 C 5.86 101.12 15.19 87.88 40.42 60.56 M -0.25 107.36 C 13.92 91.81 23.87 77.87 40.42 60.56 M 0.14 113 C 13.94 95.06 27.58 84.1 40.82 66.21 M 0.14 113 C 17.46 96.2 30.01 80.8 40.82 66.21 M -0.12 119.4 C 14.53 100.85 31.28 83.25 40.56 72.61 M -0.12 119.4 C 7.94 109.29 18.58 96.53 40.56 72.61 M 0.28 125.04 C 6.87 118.74 17.75 103.47 40.3 79 M 0.28 125.04 C 13.23 107.73 28.9 89.05 40.3 79 M 0.01 131.44 C 5.83 123.65 20.86 108.02 40.69 84.65 M 0.01 131.44 C 15.8 114.4 28.64 98.61 40.69 84.65 M -0.25 137.84 C 13.99 121.35 26.14 109 40.43 91.04 M -0.25 137.84 C 17.76 117.98 33.78 102.48 40.43 91.04 M 0.15 143.48 C 16.03 123.86 30.76 104.84 40.82 96.69 M 0.15 143.48 C 9.93 133.38 19.8 122.56 40.82 96.69 M -0.11 149.88 C 11.22 132.64 30.85 116.73 40.56 103.09 M -0.11 149.88 C 9.63 139.91 19.31 126.1 40.56 103.09 M 0.28 155.52 C 12.07 137.54 27.83 123.43 40.3 109.48 M 0.28 155.52 C 15.84 138.33 28.95 120.7 40.3 109.48 M 1.33 160.41 C 11.11 142.16 23.3 131.65 40.69 115.13 M 1.33 160.41 C 10.75 150.12 16.21 140.51 40.69 115.13 M 6.97 160.01 C 21.52 149.3 32.62 132.37 40.43 121.52 M 6.97 160.01 C 17.27 146.57 30.65 133.11 40.43 121.52 M 11.96 160.37 C 23.67 148.59 34.41 141.76 40.83 127.17 M 11.96 160.37 C 20.2 152.45 25.74 142.84 40.83 127.17 M 17.6 159.98 C 22.51 150.77 33.63 140.27 40.57 133.56 M 17.6 159.98 C 26.27 150.19 32.58 141.9 40.57 133.56 M 22.59 160.34 C 27.08 153.44 30.89 146.69 40.31 139.96 M 22.59 160.34 C 30.82 152.08 35.71 145.95 40.31 139.96 M 28.23 159.94 C 30.65 159.8 36.81 152.61 40.7 145.61 M 28.23 159.94 C 32.6 153.4 37.68 148.59 40.7 145.61 M 33.22 160.31 C 36.39 155.43 40.13 155.25 40.44 152 M 33.22 160.31 C 35.87 157.23 38.53 154.35 40.44 152 M 38.86 159.91 C 38.95 159.62 39.8 158.6 40.83 157.65 M 38.86 159.91 C 39.74 159.14 40.32 158.12 40.83 157.65" fill="none" stroke="#ffe6cc" stroke-width="0.5" stroke-linejoin="round" stroke-linecap="round" stroke-miterlimit="10" pointer-events="all"/><path d="M 40 40 C 41.67 75.93 38.47 115.45 40 160 M 40 40 C 36.66 86.67 39.26 131.09 40 160" fill="none" stroke="#d79b00" stroke-linejoin="round" stroke-linecap="round" stroke-miterlimit="10" pointer-events="none"/></g><g><g fill="rgb(0, 0, 0)" font-family="&quot;Architects Daughter&quot;" text-anchor="middle" font-size="16px" transform="rotate(-90,20,100)"><text x="19.5" y="106.5">Actor 1</text></g></g><g data-cell-id="VRyY9aNiHfzaRsHdYt7Z-3"><g><path d="M 40 80 L 40 40 L 160 40 L 160 80" fill="none" stroke="none" pointer-events="all"/><path d="M 40 80 C 78.26 84.24 119.61 85.25 160 80 M 40 80 C 70.88 79.54 98.63 77.04 160 80" fill="none" stroke="#d79b00" stroke-linejoin="round" stroke-linecap="round" stroke-miterlimit="10" pointer-events="none"/></g><g><g fill="rgb(0, 0, 0)" font-family="&quot;Architects Daughter&quot;" text-anchor="middle" font-size="16px"><text x="99.5" y="66.5">Prep</text></g></g></g><g data-cell-id="VRyY9aNiHfzaRsHdYt7Z-4"><g><path d="M 160 80 L 160 40 L 280 40 L 280 80" fill="none" stroke="none" pointer-events="all"/><path d="M 160 80 C 195.97 79.28 234.97 80.69 280 80 M 160 80 C 197.91 79.32 237.45 79.25 280 80" fill="none" stroke="#d79b00" stroke-linejoin="round" stroke-linecap="round" stroke-miterlimit="10" pointer-events="none"/></g><g><g fill="rgb(0, 0, 0)" font-family="&quot;Architects Daughter&quot;" text-anchor="middle" font-size="16px"><text x="219.5" y="66.5">Working</text></g></g></g><g data-cell-id="VRyY9aNiHfzaRsHdYt7Z-5"><g><path d="M 280 80 L 280 40 L 400 40 L 400 80" fill="none" stroke="none" pointer-events="all"/><path d="M 280 80 C 321.69 79.12 358.33 80.93 400 80 M 280 80 C 328.94 78.3 376.28 80.67 400 80" fill="none" stroke="#d79b00" stroke-linejoin="round" stroke-linecap="round" stroke-miterlimit="10" pointer-events="none"/></g><g><g fill="rgb(0, 0, 0)" font-family="&quot;Architects Daughter&quot;" text-anchor="middle" font-size="16px"><text x="339.5" y="66.5">Deliver</text></g></g></g></g><g data-cell-id="VRyY9aNiHfzaRsHdYt7Z-6"><g><path d="M 40 160 L 0 160 L 0 280 L 40 280" fill="none" stroke="none" pointer-events="all"/><path d="M 0 160 C 0 160 0 160 0 160 M 0 160 C 0 160 0 160 0 160 M -0.26 166.4 C 0.54 165.71 1.92 163.26 4.99 160.36 M -0.26 166.4 C 1.92 164.79 2.89 163.05 4.99 160.36 M 0.13 172.04 C 0.41 170.82 3.31 163.12 10.63 159.97 M 0.13 172.04 C 2.31 167.65 8.5 164.91 10.63 159.97 M -0.13 178.44 C 3.78 173.31 14.67 166.87 15.62 160.33 M -0.13 178.44 C 4.72 169.83 11.91 164.67 15.62 160.33 M 0.27 184.08 C 8.86 178.51 15.26 165.9 21.26 159.93 M 0.27 184.08 C 3.8 180.69 7.21 174.76 21.26 159.93 M 0 190.48 C 10.17 182.17 23.91 168.49 26.25 160.29 M 0 190.48 C 7.59 181.45 14.35 176.32 26.25 160.29 M -0.26 196.88 C 8.26 188.12 10.42 179.3 31.89 159.9 M -0.26 196.88 C 8.69 186.84 17.62 175.96 31.89 159.9 M 0.14 202.52 C 15.46 185.91 27.74 171.07 36.88 160.26 M 0.14 202.52 C 11.27 189.21 23.73 178.4 36.88 160.26 M -0.12 208.92 C 13.12 195.15 24.08 188.51 40.55 162.13 M -0.12 208.92 C 14.28 194.48 28.57 176.93 40.55 162.13 M 0.27 214.56 C 12.51 204.39 17.98 193.3 40.29 168.52 M 0.27 214.56 C 14.97 196.94 25.66 182.96 40.29 168.52 M 0.01 220.96 C 13.59 205.04 28.86 189.36 40.69 174.17 M 0.01 220.96 C 15.97 204.52 32.45 183.73 40.69 174.17 M -0.25 227.36 C 9.37 214.22 22.15 202.12 40.42 180.56 M -0.25 227.36 C 11.43 215.29 22.48 201.59 40.42 180.56 M 0.14 233 C 6.54 217.96 21.72 211.93 40.82 186.21 M 0.14 233 C 12.09 221.68 22.38 208.59 40.82 186.21 M -0.12 239.4 C 5.74 230.27 21.07 221.96 40.56 192.61 M -0.12 239.4 C 11.44 225.13 20.1 212.43 40.56 192.61 M 0.28 245.04 C 12.57 238.88 18.42 228.38 40.3 199 M 0.28 245.04 C 11.33 229.78 22.81 219.17 40.3 199 M 0.01 251.44 C 13.11 235.73 29.38 219.26 40.69 204.65 M 0.01 251.44 C 17.83 233.92 33.54 216.02 40.69 204.65 M -0.25 257.84 C 12.53 243.67 19.78 231.48 40.43 211.04 M -0.25 257.84 C 12.63 243.3 24.27 229.45 40.43 211.04 M 0.15 263.48 C 11.42 251.69 16.13 241.35 40.82 216.69 M 0.15 263.48 C 11.16 249.45 24.5 234.97 40.82 216.69 M -0.11 269.88 C 13.32 251.98 32.4 237.78 40.56 223.09 M -0.11 269.88 C 10.22 257.87 23.04 242.37 40.56 223.09 M 0.28 275.52 C 9.43 267.85 18.14 251.53 40.3 229.48 M 0.28 275.52 C 12.75 261.61 25.11 248.37 40.3 229.48 M 1.33 280.41 C 12 266.27 21.71 255.44 40.69 235.13 M 1.33 280.41 C 11.14 270.21 20.01 259.26 40.69 235.13 M 6.97 280.01 C 20.62 264.1 29.16 255.03 40.43 241.52 M 6.97 280.01 C 13.11 270.68 20.98 260.16 40.43 241.52 M 11.96 280.37 C 21.48 267.95 34.81 258.11 40.83 247.17 M 11.96 280.37 C 19.8 272.45 26.76 261.97 40.83 247.17 M 17.6 279.98 C 22.31 269.32 32.79 264.03 40.57 253.56 M 17.6 279.98 C 21.57 273.39 27.94 269.48 40.57 253.56 M 22.59 280.34 C 25.87 273.38 34.96 265.2 40.31 259.96 M 22.59 280.34 C 27.36 276.54 30.48 268.83 40.31 259.96 M 28.23 279.94 C 29.94 277.8 35.94 268.78 40.7 265.61 M 28.23 279.94 C 33.66 273.85 34.31 269.49 40.7 265.61 M 33.22 280.31 C 36.38 278.44 36.19 275.41 40.44 272 M 33.22 280.31 C 35.16 279.14 36.31 275.62 40.44 272 M 38.86 279.91 C 39.42 278.7 40.49 278.02 40.83 277.65 M 38.86 279.91 C 39.49 279.41 40.05 278.9 40.83 277.65" fill="none" stroke="#dae8fc" stroke-width="0.5" stroke-linejoin="round" stroke-linecap="round" stroke-miterlimit="10" pointer-events="all"/><path d="M 40 160 C 42.16 195.64 45.55 236.76 40 280 M 40 160 C 39.52 190.93 38.73 223.66 40 280" fill="none" stroke="#6c8ebf" stroke-linejoin="round" stroke-linecap="round" stroke-miterlimit="10" pointer-events="none"/></g><g><g fill="rgb(0, 0, 0)" font-family="&quot;Architects Daughter&quot;" text-anchor="middle" font-size="16px" transform="rotate(-90,20,220)"><text x="19.5" y="226.5">Actor 2</text></g></g><g data-cell-id="VRyY9aNiHfzaRsHdYt7Z-7"><g><path d="M 40 160 L 40 160 L 160 160 L 160 160" fill="none" stroke="none" pointer-events="all"/></g></g><g data-cell-id="VRyY9aNiHfzaRsHdYt7Z-8"><g><path d="M 160 160 L 160 160 L 280 160 L 280 160" fill="none" stroke="none" pointer-events="all"/></g></g><g data-cell-id="VRyY9aNiHfzaRsHdYt7Z-9"><g><path d="M 280 160 L 280 160 L 400 160 L 400 160" fill="none" stroke="none" pointer-events="all"/></g></g></g><g data-cell-id="VRyY9aNiHfzaRsHdYt7Z-10"><g><path d="M 40 280 L 0 280 L 0 400 L 40 400" fill="none" stroke="none" pointer-events="all"/><path d="M 0 280 C 0 280 0 280 0 280 M 0 280 C 0 280 0 280 0 280 M -0.26 286.4 C 1.73 283.72 1.97 282 4.99 280.36 M -0.26 286.4 C 1.92 284.37 1.93 283.73 4.99 280.36 M 0.13 292.04 C 4.4 287.54 4 284.97 10.63 279.97 M 0.13 292.04 C 1.45 288.07 6.46 287.67 10.63 279.97 M -0.13 298.44 C 6.75 297.91 5.4 288.29 15.62 280.33 M -0.13 298.44 C 2.16 295.72 5.81 289.59 15.62 280.33 M 0.27 304.08 C 3.38 297.96 10.09 291.77 21.26 279.93 M 0.27 304.08 C 6.1 297.37 13.67 291.94 21.26 279.93 M 0 310.48 C 8.48 298.53 14.41 286.59 26.25 280.29 M 0 310.48 C 7.39 303.82 12.91 295.02 26.25 280.29 M -0.26 316.88 C 6.43 302.53 23.11 298.39 31.89 279.9 M -0.26 316.88 C 12.98 304.86 22.65 292.52 31.89 279.9 M 0.14 322.52 C 6.51 310.81 18.64 301.47 36.88 280.26 M 0.14 322.52 C 12.49 309.88 24.35 295.45 36.88 280.26 M -0.12 328.92 C 14.96 313.07 20.27 306.78 41.21 281.37 M -0.12 328.92 C 10.41 312.88 23.2 301.43 41.21 281.37 M 0.27 334.56 C 15.18 320.46 21.83 310.51 41.6 287.01 M 0.27 334.56 C 13.12 318.9 27.14 306.34 41.6 287.01 M 0.01 340.96 C 14.5 324.66 27.52 308.99 41.34 293.41 M 0.01 340.96 C 9.21 329.4 16.67 321.15 41.34 293.41 M -0.25 347.36 C 7.3 338.06 20.44 322.7 41.08 299.81 M -0.25 347.36 C 16.48 330.32 31.03 312.72 41.08 299.81 M 0.14 353 C 10.84 334.12 26.75 316.37 41.47 305.45 M 0.14 353 C 10.16 344.27 18.51 330.65 41.47 305.45 M -0.12 359.4 C 12.83 349.01 22.6 335.02 41.21 311.85 M -0.12 359.4 C 12.74 347.11 23.4 330.49 41.21 311.85 M 0.28 365.04 C 16.99 348.45 31.45 324.85 41.61 317.49 M 0.28 365.04 C 12.51 352.87 20.58 338.05 41.61 317.49 M 0.01 371.44 C 9.97 361.99 18.06 351.36 41.35 323.89 M 0.01 371.44 C 9.28 358.39 21.25 346.83 41.35 323.89 M -0.25 377.84 C 6.67 367.7 18.09 355.16 41.08 330.29 M -0.25 377.84 C 10.76 361.52 27.28 348.91 41.08 330.29 M 0.15 383.48 C 6.05 377.65 20.77 362.76 41.48 335.93 M 0.15 383.48 C 13.83 367.24 30.9 350.97 41.48 335.93 M -0.11 389.88 C 13.88 372.99 27.08 361.3 41.22 342.33 M -0.11 389.88 C 15.4 372.2 32.28 354.98 41.22 342.33 M 0.28 395.52 C 9.6 384.1 24.52 369.98 41.61 347.97 M 0.28 395.52 C 9.67 383.61 18.99 372.49 41.61 347.97 M 0.68 401.16 C 13.96 387.22 33.7 366.09 41.35 354.37 M 0.68 401.16 C 13.14 384.36 26.3 369.7 41.35 354.37 M 6.32 400.77 C 18.46 388.11 28.71 377.21 41.09 360.77 M 6.32 400.77 C 15.23 391.15 20.08 386.26 41.09 360.77 M 11.31 401.13 C 24.85 389.52 32.47 378.68 41.48 366.41 M 11.31 401.13 C 24.86 388.09 32.63 376.62 41.48 366.41 M 16.95 400.73 C 24.34 393.93 32.91 378.96 41.22 372.81 M 16.95 400.73 C 23.35 393.82 25.74 390.78 41.22 372.81 M 21.94 401.09 C 27.63 398.09 31.54 395.16 41.62 378.45 M 21.94 401.09 C 27.22 395.7 32.54 389.39 41.62 378.45 M 27.58 400.7 C 27.68 398.53 33.59 389.58 41.36 384.85 M 27.58 400.7 C 28.73 395.92 35.05 395.04 41.36 384.85 M 32.57 401.06 C 35.83 396.92 37.56 395.44 41.09 391.25 M 32.57 401.06 C 34.71 397.33 38.79 394.66 41.09 391.25 M 38.21 400.67 C 39.83 399.89 39.54 397.89 41.49 396.89 M 38.21 400.67 C 38.59 400.12 39.47 398.98 41.49 396.89" fill="none" stroke="#d5e8d4" stroke-width="0.5" stroke-linejoin="round" stroke-linecap="round" stroke-miterlimit="10" pointer-events="all"/><path d="M 40 280 C 34.13 310.63 39.06 342.45 40 400 M 40 280 C 43.45 320.86 41.49 362.27 40 400" fill="none" stroke="#82b366" stroke-linejoin="round" stroke-linecap="round" stroke-miterlimit="10" pointer-events="none"/></g><g><g fill="rgb(0, 0, 0)" font-family="&quot;Architects Daughter&quot;" text-anchor="middle" font-size="16px" transform="rotate(-90,20,340)"><text x="19.5" y="346.5">Actor 3</text></g></g><g data-cell-id="VRyY9aNiHfzaRsHdYt7Z-11"><g><path d="M 40 280 L 40 280 L 160 280 L 160 280" fill="none" stroke="none" pointer-events="all"/></g></g><g data-cell-id="VRyY9aNiHfzaRsHdYt7Z-12"><g><path d="M 160 280 L 160 280 L 280 280 L 280 280" fill="none" stroke="none" pointer-events="all"/></g></g><g data-cell-id="VRyY9aNiHfzaRsHdYt7Z-13"><g><path d="M 280 280 L 280 280 L 400 280 L 400 280" fill="none" stroke="none" pointer-events="all"/></g></g></g></g></g></g></g></svg>